<svg id="Group_6860" data-name="Group 6860" xmlns="http://www.w3.org/2000/svg" xmlns:xlink="http://www.w3.org/1999/xlink" width="42.542" height="44.944" viewBox="0 0 42.542 44.944">
  <defs>
    <clipPath id="clip-path">
      <rect id="Rectangle_1901" data-name="Rectangle 1901" width="42.542" height="44.944" />
    </clipPath>
    <clipPath id="clip-path-3">
      <rect id="Rectangle_1898" data-name="Rectangle 1898" width="3.512" height="1" />
    </clipPath>
  </defs>
  <g id="Group_6859" data-name="Group 6859" clip-path="url(#clip-path)">
    <g id="Group_6858" data-name="Group 6858" transform="translate(0 0)">
      <g id="Group_6857" data-name="Group 6857" clip-path="url(#clip-path)">
        <path id="Path_7765" data-name="Path 7765" d="M33.85,14.785a.358.358,0,0,1-.29-.566L37.33,8.979a.358.358,0,0,1,.582.417l-3.771,5.241a.358.358,0,0,1-.291.149" transform="translate(1.874 0.474)"/>
        <path id="Path_7766" data-name="Path 7766" d="M.716,29.918A.358.358,0,0,1,.394,29.4a2.428,2.428,0,0,1,1.19-1.14,3.257,3.257,0,0,1-1.529-3.3A3.121,3.121,0,0,1,1.452,23a3.134,3.134,0,0,1,2.37-.453.357.357,0,1,1-.161.7,2.412,2.412,0,0,0-1.822.358,2.4,2.4,0,0,0-1.082,1.5,2.681,2.681,0,0,0,2.192,2.965.358.358,0,0,1-.13.7,1.758,1.758,0,0,0-1.78.939.36.36,0,0,1-.323.2" transform="translate(0 1.207)"/>
        <path id="Path_7767" data-name="Path 7767" d="M10.267,42.957a.358.358,0,0,1-.071-.708l1.635-.331c.468-1.525,1.012-3.115,1.537-4.654a.358.358,0,0,1,.678.231c-.548,1.6-1.114,3.26-1.591,4.834a.36.36,0,0,1-.271.247l-1.845.374a.339.339,0,0,1-.072.007" transform="translate(0.554 1.987)"/>
        <path id="Path_7768" data-name="Path 7768" d="M26.591,42.6a.358.358,0,0,1-.338-.239c-.477-1.353-1.043-2.779-1.59-4.157a.358.358,0,0,1,.666-.263c.549,1.385,1.118,2.816,1.6,4.183a.358.358,0,0,1-.219.456.368.368,0,0,1-.119.02" transform="translate(1.378 2.024)"/>
        <path id="Path_7769" data-name="Path 7769" d="M2.961,18.459l.865-3.192,1.453-1.715,1.847-1.2,1.4-.165.831-.339L9.67,10.21l.921-.767,1.032.109.355.115L13.09,7.617l1.593-1.11L17,6.47l1.645.81.413.8.719.139L22.1,5.765l2.645-.547,2.1.283,1.75,1.18.891,1.407.407,1.866L29.5,11.507l-.061.708.378.738,2.766-.4,1.643.642.922,1.137.62,1.207L36,16.905l-.34,1.57L35.2,19.726l-.636.578.627.314.532.956.059.859-.412,1.1-.554.326L34.591,24.9l.8.819.872,1.12.385,1.579.114,1.38-.258,1.317-.344,1.064-.786.866-1.242.72-1.059.5-1.264.264-1.1.094-.626-.145-.635.747.2.849-.434,1.342-.713,1.422-1.443.906-1.683.521-1.894-.3-1.54-.44-.34-.165-.852.9s-1.59.58-1.691.631-1.841-.034-1.841-.034l-1.45-.72-1.4-1.233-.491-1-1.218.643-1.615-.3a9.14,9.14,0,0,1-1.115-.891,12.265,12.265,0,0,0-.484-1.276l-.228-.857-.655-.491-1.648-.279-2.093-.9-1.2-1.42-.6-2.294.388-1.89,1.073-1.669-.7-1.122.005-1.23L4.4,22.843l.173-.364-.788-1.29-.676-1.813Z" transform="translate(0.166 0.28)" fill="#fff"/>
        <path id="Path_7770" data-name="Path 7770" d="M6.3,34.5a5.384,5.384,0,0,1-3.235-2.79,5.415,5.415,0,0,1,1-5.815,2.352,2.352,0,0,1-.879-2.009,2.17,2.17,0,0,1,1.137-1.633,6.347,6.347,0,0,1-1.135-6.62,7.206,7.206,0,0,1,5.8-4.422.358.358,0,1,1,.077.711A6.471,6.471,0,0,0,3.847,15.9a5.58,5.58,0,0,0,1.365,6.238.358.358,0,0,1-.178.62A1.43,1.43,0,0,0,3.89,23.967,1.727,1.727,0,0,0,4.8,25.548a.359.359,0,0,1,.055.577A4.518,4.518,0,0,0,8.47,34a.357.357,0,0,1,.1.707A5.077,5.077,0,0,1,6.3,34.5" transform="translate(0.146 0.602)"/>
        <path id="Path_7771" data-name="Path 7771" d="M16.313,39.66a4.989,4.989,0,0,1-3.032-2.771,2.851,2.851,0,0,1-3.2-.053,3.37,3.37,0,0,1-1.4-3.4.358.358,0,0,1,.7.143,2.639,2.639,0,0,0,1.094,2.659,2.1,2.1,0,0,0,2.7-.208.358.358,0,0,1,.606.144A4.275,4.275,0,0,0,17.1,39.118a4.332,4.332,0,0,0,4.074-1.66.358.358,0,0,1,.534-.052,4.265,4.265,0,0,0,7.14-3.652.358.358,0,0,1,.711-.092,4.979,4.979,0,0,1-8.046,4.516,5.1,5.1,0,0,1-4.529,1.644,4.552,4.552,0,0,1-.672-.162" transform="translate(0.482 1.779)"/>
        <path id="Path_7772" data-name="Path 7772" d="M28.528,33.9a.357.357,0,0,1,.189-.688,5.166,5.166,0,0,0,4.266-9.155.357.357,0,1,1,.433-.569A6.058,6.058,0,0,1,35.2,30.654a6.083,6.083,0,0,1-6.641,3.256l-.032-.008" transform="translate(1.582 1.257)"/>
        <path id="Path_7773" data-name="Path 7773" d="M33.307,23.821a.357.357,0,0,1-.048-.661,1.607,1.607,0,0,0,.852-1.655,1.888,1.888,0,0,0-1.155-1.363.357.357,0,0,1-.11-.632,4.037,4.037,0,0,0,.916-5.315,4.057,4.057,0,0,0-5.3-1.055.358.358,0,1,1-.39-.6,4.745,4.745,0,0,1,6.28,1.25,4.746,4.746,0,0,1-.647,5.931,2.615,2.615,0,0,1,1.113,1.666A2.315,2.315,0,0,1,33.574,23.8a.358.358,0,0,1-.267.019" transform="translate(1.561 0.636)"/>
        <path id="Path_7774" data-name="Path 7774" d="M9.373,11.91a.358.358,0,0,1-.182-.133,1.8,1.8,0,0,1,2.353-2.593,4.167,4.167,0,0,1,7.882-.76.358.358,0,0,1-.657.287A3.572,3.572,0,0,0,14.979,6.7a3.567,3.567,0,0,0-2.82,3.226.358.358,0,0,1-.671.157.865.865,0,0,0-.567-.385,1.107,1.107,0,0,0-.865.134,1.14,1.14,0,0,0-.281,1.527.358.358,0,0,1-.4.547" transform="translate(0.497 0.319)"/>
        <path id="Path_7775" data-name="Path 7775" d="M28.359,12.648a.316.316,0,0,1-.04-.016.356.356,0,0,1-.175-.474,4.781,4.781,0,0,0-.484-4.713A4.678,4.678,0,0,0,19.551,8.5a.358.358,0,0,1-.667-.261,5.387,5.387,0,1,1,9.911,4.215.36.36,0,0,1-.435.191" transform="translate(1.055 0.26)"/>
        <path id="Path_7776" data-name="Path 7776" d="M26.487,42.01l1.845.321" transform="translate(1.482 2.255)"   stroke-linecap="round" stroke-linejoin="round" stroke-width="0.678"/>
        <path id="Path_7777" data-name="Path 7777" d="M36,22.422a.358.358,0,0,1-.273-.588,2.68,2.68,0,0,1,2.6-.86.358.358,0,1,1-.163.7,1.947,1.947,0,0,0-1.886.624.355.355,0,0,1-.273.127" transform="translate(1.994 1.122)"/>
        <path id="Path_7778" data-name="Path 7778" d="M36.09,23.689a.357.357,0,0,1-.207-.649,4.473,4.473,0,0,1,4.461-.333.357.357,0,1,1-.321.639,3.738,3.738,0,0,0-3.727.278.354.354,0,0,1-.206.065" transform="translate(1.999 1.195)"/>
        <g id="Group_6853" data-name="Group 6853" transform="translate(12.751 19.275)" opacity="0.949">
          <g id="Group_6852" data-name="Group 6852">
            <g id="Group_6851" data-name="Group 6851" clip-path="url(#clip-path-3)">
              <path id="Path_7779" data-name="Path 7779" d="M12.077,18.515c.037-.23.852-.292,1.82-.139s1.725.464,1.69.693-.852.292-1.822.139-1.725-.464-1.688-.693" transform="translate(-12.075 -18.293)" fill="#ffdede"/>
            </g>
          </g>
        </g>
        <g id="Group_6856" data-name="Group 6856" transform="translate(23.217 19.264)" opacity="0.949">
          <g id="Group_6855" data-name="Group 6855">
            <g id="Group_6854" data-name="Group 6854" clip-path="url(#clip-path-3)">
              <path id="Path_7780" data-name="Path 7780" d="M25.5,18.505c-.037-.23-.852-.292-1.82-.139s-1.725.464-1.69.693.852.292,1.822.139,1.725-.464,1.688-.693" transform="translate(-21.986 -18.282)" fill="#ffdede"/>
            </g>
          </g>
        </g>
        <path id="Path_7781" data-name="Path 7781" d="M22.383,16.614c.265.264.1.861-.373,1.331s-1.068.636-1.334.372-.1-.861.373-1.331,1.069-.636,1.334-.372" transform="translate(1.15 0.885)"/>
        <path id="Path_7782" data-name="Path 7782" d="M15.209,16.711c-.265.264-.1.861.373,1.331s1.068.636,1.334.372.1-.861-.373-1.331-1.069-.636-1.334-.372" transform="translate(0.844 0.89)"/>
        <path id="Path_7783" data-name="Path 7783" d="M22.178,4.365a.334.334,0,0,1-.056,0,.357.357,0,0,1-.3-.409,4.284,4.284,0,0,1,.828-1.88.357.357,0,0,1,.546.462,3.579,3.579,0,0,0-.666,1.53.359.359,0,0,1-.354.3" transform="translate(1.221 0.105)"/>
        <path id="Path_7784" data-name="Path 7784" d="M21.318,4.816H21.3a.359.359,0,0,1-.34-.375A9.343,9.343,0,0,1,22.434.16a.358.358,0,1,1,.6.394,8.753,8.753,0,0,0-1.356,3.923.358.358,0,0,1-.357.339" transform="translate(1.173 0)"/>
        <path id="Path_7785" data-name="Path 7785" d="M13.6,5.691a.358.358,0,0,1-.355-.312,2.731,2.731,0,0,0-.282-.811.358.358,0,0,1,.634-.333,3.392,3.392,0,0,1,.359,1.055.357.357,0,0,1-.31.4.341.341,0,0,1-.045,0" transform="translate(0.723 0.217)"/>
        <path id="Path_7786" data-name="Path 7786" d="M10.622,7.945a.359.359,0,0,1-.312-.18A7.605,7.605,0,0,0,8.143,5.392a.357.357,0,1,1,.363-.615,8.176,8.176,0,0,1,2.424,2.634A.355.355,0,0,1,10.8,7.9a.349.349,0,0,1-.176.047" transform="translate(0.446 0.254)"/>
        <path id="Path_7787" data-name="Path 7787" d="M31.223,36.969a.358.358,0,0,1-.335-.23,3.758,3.758,0,0,0-1.347-1.633.357.357,0,0,1,.381-.6,4.465,4.465,0,0,1,1.636,1.983.357.357,0,0,1-.207.462.364.364,0,0,1-.128.023" transform="translate(1.643 1.849)"/>
        <path id="Path_7788" data-name="Path 7788" d="M31.323,35.327a.356.356,0,0,1-.289-.146,1.6,1.6,0,0,0-.687-.522.358.358,0,0,1,.229-.678,2.321,2.321,0,0,1,1.037.778.357.357,0,0,1-.289.568" transform="translate(1.684 1.823)"/>
        <path id="Path_7789" data-name="Path 7789" d="M19.4,19.158a1.912,1.912,0,0,0-1.188-.017,1.3,1.3,0,0,1-.372.373,1.435,1.435,0,0,1-.558.211,2.762,2.762,0,0,0-.506.734c.056,0,.111.007.165.007a2.307,2.307,0,0,0,1.3-.361,2,2,0,0,0,.556-.555,2,2,0,0,0,.556.555,2.307,2.307,0,0,0,1.3.361c.04,0,.083,0,.125-.005a2.755,2.755,0,0,0-.515-.746,1.423,1.423,0,0,1-.509-.2,1.3,1.3,0,0,1-.359-.356" transform="translate(0.938 1.023)"/>
        <path id="Path_7790" data-name="Path 7790" d="M18.949,18.4a.128.128,0,0,0-.018-.016.3.3,0,0,0-.035-.026l-.02-.013a.349.349,0,0,0-.045-.02l-.017-.006a.358.358,0,0,0-.058-.014l-.007,0h0a.449.449,0,0,0-.065,0h-.023a.368.368,0,0,0-.046.011h-.005a.309.309,0,0,0-.061.024h0a.337.337,0,0,0-.056.036h0a.221.221,0,0,0-.023.021c.073-.006.147-.011.221-.011.091,0,.18.006.267.015" transform="translate(1.033 0.982)"/>
        <path id="Path_7791" data-name="Path 7791" d="M16.056,19.578a.357.357,0,1,0-.193.688c.082.023.163.042.243.06a3.6,3.6,0,0,1,.348-.655c-.128-.023-.26-.054-.4-.093" transform="translate(0.873 1.05)"/>
        <path id="Path_7792" data-name="Path 7792" d="M21.81,19.825a.358.358,0,0,0-.441-.248c-.151.042-.3.075-.434.1a3.624,3.624,0,0,1,.348.659q.136-.03.279-.07a.357.357,0,0,0,.248-.44" transform="translate(1.171 1.05)"/>
        <path id="Path_7793" data-name="Path 7793" d="M21.142,21.787a2.593,2.593,0,0,1-2.311,2.8,2.593,2.593,0,0,1-2.31-2.8,3.247,3.247,0,0,1,.308-1.394,4.247,4.247,0,0,1-.734-.105,3.944,3.944,0,0,0-.29,1.5A3.3,3.3,0,0,0,18.83,25.3a3.3,3.3,0,0,0,3.027-3.514,3.964,3.964,0,0,0-.286-1.491,4.056,4.056,0,0,1-.737.1,3.245,3.245,0,0,1,.307,1.393" transform="translate(0.884 1.089)"/>
        <path id="Path_7794" data-name="Path 7794" d="M18.451,18.414a.373.373,0,0,0-.034.046l-.007.012a.373.373,0,0,0-.022.046l-.007.019c0,.015-.007.03-.011.044l0,.02a1.587,1.587,0,0,1-.233.576,1.912,1.912,0,0,1,1.188.017,1.559,1.559,0,0,1-.245-.593l-.005-.024c0-.012-.005-.024-.008-.036l-.014-.034c0-.009-.007-.019-.013-.028s-.014-.022-.021-.034L19,18.423a.257.257,0,0,0-.029-.031h0a2.507,2.507,0,0,0-.267-.015c-.075,0-.148,0-.221.011a.149.149,0,0,0-.023.021l-.005.005" transform="translate(1.014 0.986)"/>
        <path id="Path_7795" data-name="Path 7795" d="M20.08,19.682a2.755,2.755,0,0,1,.515.746,4.056,4.056,0,0,0,.737-.1,3.624,3.624,0,0,0-.348-.659,2.493,2.493,0,0,1-.9.011" transform="translate(1.123 1.056)"/>
        <path id="Path_7796" data-name="Path 7796" d="M17.318,19.691a2.6,2.6,0,0,1-.89-.026,3.667,3.667,0,0,0-.35.655,4.164,4.164,0,0,0,.735.106,2.748,2.748,0,0,1,.5-.735" transform="translate(0.9 1.056)"/>
      </g>
    </g>
  </g>
</svg>
