<svg id="Group_6798" data-name="Group 6798" xmlns="http://www.w3.org/2000/svg" xmlns:xlink="http://www.w3.org/1999/xlink" width="40.341" height="41.21" viewBox="0 0 40.341 41.21">
  <defs>
    <clipPath id="clip-path">
      <rect id="Rectangle_1880" data-name="Rectangle 1880" width="40.341" height="41.21" fill="none"/>
    </clipPath>
    <clipPath id="clip-path-3">
      <rect id="Rectangle_1875" data-name="Rectangle 1875" width="1.645" height="1.646" fill="none"/>
    </clipPath>
    <clipPath id="clip-path-4">
      <rect id="Rectangle_1876" data-name="Rectangle 1876" width="1.646" height="1.646" fill="none"/>
    </clipPath>
    <clipPath id="clip-path-5">
      <rect id="Rectangle_1877" data-name="Rectangle 1877" width="3.054" height="1.314" fill="none"/>
    </clipPath>
    <clipPath id="clip-path-6">
      <rect id="Rectangle_1878" data-name="Rectangle 1878" width="3.054" height="1.315" fill="none"/>
    </clipPath>
  </defs>
  <g id="Group_6797" data-name="Group 6797" clip-path="url(#clip-path)">
    <g id="Group_6796" data-name="Group 6796" transform="translate(0 0)">
      <g id="Group_6795" data-name="Group 6795" clip-path="url(#clip-path)">
        <path id="Path_7727" data-name="Path 7727" d="M3.351,19.957l-.16-3.3.853-2.078L5.43,12.87l1.279-.586.684-.578-.2-1.661.639-1.012L8.84,8.82h.373l.426-2.291,1.173-1.545L13,4.238l1.812.267.64.639.725-.089L17.632,2,19.977.667,22.055.3,24.08.88l1.279,1.066L26.318,3.6l.107,1.6.159.693.586.586,2.5-1.226,1.759.107,1.225.8.959.959.639,1.225.16,1.6-.053,1.333-.427.746.693.107.8.746.32.8L35.7,14.842l-.426.479.107,1.066,1.012.533,1.173.8.852,1.385.533,1.279.159,1.333v1.119l-.48,1.066-.959,1.065-.853.8-1.119.64-1.012.426-.64.054-.372.906.453.746v1.412l-.24,1.572-1.093,1.306-1.438,1.012-1.892.293-1.6.054-.373-.054-.533,1.12s-1.332,1.039-1.412,1.119-1.758.533-1.758.533l-1.6-.24-1.705-.746-.773-.8-.959.985-1.625.213a9.106,9.106,0,0,1-1.333-.506,12.335,12.335,0,0,0-.852-1.066L14.461,34l-.772-.267-1.652.24-2.264-.213L8.2,32.773l-1.279-2-.213-1.919.506-1.918L6.2,26.086l-.373-1.173.24-1.226.054-.4L4.977,22.3l-1.2-1.519Z" transform="translate(-0.236 -0.022)" fill="#fff"/>
        <path id="Path_7728" data-name="Path 7728" d="M11.5,35.413A5.378,5.378,0,0,1,7.564,33.75a5.427,5.427,0,0,1-.841-5.841,2.359,2.359,0,0,1-1.452-1.643,2.172,2.172,0,0,1,.579-1.9,6.36,6.36,0,0,1-3.115-5.954,7.2,7.2,0,0,1,4.15-5.989.358.358,0,0,1,.292.653,6.465,6.465,0,0,0-3.728,5.38A5.591,5.591,0,0,0,6.664,23.97a.357.357,0,0,1,.023.645,1.426,1.426,0,0,0-.716,1.507,1.73,1.73,0,0,0,1.348,1.227.357.357,0,0,1,.23.533,4.665,4.665,0,0,0,.543,5.385,4.667,4.667,0,0,0,5.318,1,.357.357,0,0,1,.314.642,5.064,5.064,0,0,1-2.227.5" transform="translate(-0.201 -0.915)"/>
        <path id="Path_7729" data-name="Path 7729" d="M24.189,39.533a4.984,4.984,0,0,1-3.731-1.708,2.841,2.841,0,0,1-3.055.932,3.373,3.373,0,0,1-2.371-2.8.357.357,0,0,1,.71-.08,2.644,2.644,0,0,0,1.857,2.2,2.089,2.089,0,0,0,2.5-1.027.358.358,0,0,1,.621-.048,4.269,4.269,0,0,0,4.049,1.78,4.32,4.32,0,0,0,3.359-2.829.358.358,0,0,1,.492-.214,4.257,4.257,0,0,0,5.66-5.667.357.357,0,1,1,.646-.3,4.971,4.971,0,0,1-6.253,6.767,5.09,5.09,0,0,1-3.8,2.954,4.641,4.641,0,0,1-.688.051" transform="translate(-1.11 -2.183)"/>
        <path id="Path_7730" data-name="Path 7730" d="M36.461,28.551a.357.357,0,0,1-.031-.713,5.331,5.331,0,0,0,4.661-4.513,5.331,5.331,0,0,0-3.424-5.511.357.357,0,0,1,.235-.675,6.07,6.07,0,0,1,3.9,6.274,6.068,6.068,0,0,1-5.308,5.136.19.19,0,0,1-.032,0" transform="translate(-2.666 -1.264)"/>
        <path id="Path_7731" data-name="Path 7731" d="M37.137,16.028a.357.357,0,0,1-.248-.615,1.609,1.609,0,0,0,.3-1.837,1.891,1.891,0,0,0-1.517-.944.358.358,0,0,1-.3-.568,4.045,4.045,0,0,0-.764-5.34,4.045,4.045,0,0,0-5.359.622A.357.357,0,1,1,28.7,6.9a4.729,4.729,0,0,1,6.349-.737A4.752,4.752,0,0,1,36.254,12a2.619,2.619,0,0,1,1.57,1.245,2.318,2.318,0,0,1-.439,2.68.357.357,0,0,1-.248.1" transform="translate(-2.113 -0.389)"/>
        <path id="Path_7732" data-name="Path 7732" d="M8.045,11.979a.358.358,0,0,1-.214-.071,1.8,1.8,0,0,1,1.437-3.19,4.27,4.27,0,0,1,2.161-4.045,4.251,4.251,0,0,1,5.093.9.357.357,0,0,1-.535.473A3.566,3.566,0,0,0,11.769,5.3,3.565,3.565,0,0,0,10.083,9.24a.358.358,0,0,1-.589.356A.865.865,0,0,0,8.837,9.4a1.107,1.107,0,0,0-.781.393,1.144,1.144,0,0,0,.2,1.54.357.357,0,0,1-.214.644" transform="translate(-0.527 -0.31)"/>
        <path id="Path_7733" data-name="Path 7733" d="M27.563,6.319l-.043,0a.357.357,0,0,1-.313-.4A4.793,4.793,0,0,0,25.3,1.581a4.792,4.792,0,0,0-4.721-.428,4.791,4.791,0,0,0-2.657,3.924.358.358,0,0,1-.714-.044A5.379,5.379,0,1,1,27.918,6a.358.358,0,0,1-.355.315" transform="translate(-1.271 0)"/>
        <path id="Path_7734" data-name="Path 7734" d="M40.523,19.161a.356.356,0,0,1-.357-.345,6.5,6.5,0,0,1,2.494-5.328l.056-.048a.358.358,0,0,1,.465.544l-.063.054-.016.013a5.779,5.779,0,0,0-2.222,4.74.357.357,0,0,1-.344.37h-.014" transform="translate(-2.966 -0.986)"/>
        <path id="Path_7735" data-name="Path 7735" d="M2.783,19.161a.356.356,0,0,0,.357-.345A6.5,6.5,0,0,0,.646,13.488L.59,13.44a.358.358,0,0,0-.465.544l.063.054.016.013a5.779,5.779,0,0,1,2.222,4.74.357.357,0,0,0,.344.37h.014" transform="translate(0 -0.986)"/>
        <path id="Path_7736" data-name="Path 7736" d="M17.46,44.083a.373.373,0,0,1-.109-.017.359.359,0,0,1-.232-.45,1.446,1.446,0,0,1,1.187-.947,1.554,1.554,0,0,1,1.007.165,1.322,1.322,0,0,0,.019-.617.969.969,0,0,0-.392-.621,1.752,1.752,0,0,1-.863-1.132,1.73,1.73,0,0,1,.237-1.4.357.357,0,1,1,.588.406,1.019,1.019,0,0,0-.132.827,1.035,1.035,0,0,0,.517.678l.027.016a1.666,1.666,0,0,1,.717,1.083,2.038,2.038,0,0,1-.3,1.539.358.358,0,0,1-.588.011.832.832,0,0,0-1.348.214.358.358,0,0,1-.34.248" transform="translate(-1.263 -2.873)"/>
        <path id="Path_7737" data-name="Path 7737" d="M30.012,44.018a.358.358,0,0,1-.34-.248.832.832,0,0,0-1.348-.214.358.358,0,0,1-.588-.011,2.034,2.034,0,0,1-.3-1.539,1.663,1.663,0,0,1,.717-1.083.146.146,0,0,1,.027-.016,1.063,1.063,0,0,0,.515-.65,1.206,1.206,0,0,0-.074-.909l-.516-.773a.357.357,0,1,1,.593-.4l.527.786.016.026a1.916,1.916,0,0,1,.139,1.474,1.769,1.769,0,0,1-.852,1.069.97.97,0,0,0-.393.621,1.335,1.335,0,0,0,.019.617,1.556,1.556,0,0,1,1.007-.165,1.445,1.445,0,0,1,1.187.947.358.358,0,0,1-.232.45.367.367,0,0,1-.108.017" transform="translate(-2.023 -2.808)"/>
        <path id="Path_7738" data-name="Path 7738" d="M19.592,20.985a2.278,2.278,0,0,0,2.127-.271,1.974,1.974,0,0,0,.843-1.841A1.952,1.952,0,0,0,25.756,20.4" transform="translate(-1.447 -1.394)" fill="none" stroke="#000" stroke-linecap="round" stroke-linejoin="round" stroke-width="0.772"/>
        <path id="Path_7739" data-name="Path 7739" d="M20.663,21.278a5.338,5.338,0,0,0,1.51,4.1,1.184,1.184,0,0,0,1.687-.407,5.962,5.962,0,0,0,.743-3.963" transform="translate(-1.525 -1.551)" fill="none" stroke="#000" stroke-linecap="round" stroke-linejoin="round" stroke-width="0.772"/>
        <g id="Group_6785" data-name="Group 6785" transform="translate(17.936 15.417)" opacity="0.949">
          <g id="Group_6784" data-name="Group 6784">
            <g id="Group_6783" data-name="Group 6783" clip-path="url(#clip-path-3)">
              <path id="Path_7740" data-name="Path 7740" d="M19.473,17.064a.823.823,0,1,1,.31,1.122.822.822,0,0,1-.31-1.122" transform="translate(-19.366 -16.647)"/>
            </g>
          </g>
        </g>
        <g id="Group_6788" data-name="Group 6788" transform="translate(22.423 15.386)" opacity="0.949">
          <g id="Group_6787" data-name="Group 6787">
            <g id="Group_6786" data-name="Group 6786" clip-path="url(#clip-path-4)">
              <path id="Path_7741" data-name="Path 7741" d="M24.317,17.031a.823.823,0,1,1,.31,1.122.823.823,0,0,1-.31-1.122" transform="translate(-24.21 -16.613)"/>
            </g>
          </g>
        </g>
        <g id="Group_6791" data-name="Group 6791" transform="translate(24.311 16.946)" opacity="0.949">
          <g id="Group_6790" data-name="Group 6790">
            <g id="Group_6789" data-name="Group 6789" clip-path="url(#clip-path-5)">
              <path id="Path_7742" data-name="Path 7742" d="M26.25,19.06c-.025-.358.638-.7,1.482-.754s1.546.185,1.571.544-.639.7-1.482.754-1.546-.185-1.571-.544" transform="translate(-26.249 -18.297)" fill="#ffdede"/>
            </g>
          </g>
        </g>
        <g id="Group_6794" data-name="Group 6794" transform="translate(15.255 17.284)" opacity="0.949">
          <g id="Group_6793" data-name="Group 6793">
            <g id="Group_6792" data-name="Group 6792" clip-path="url(#clip-path-6)">
              <path id="Path_7743" data-name="Path 7743" d="M16.472,19.424c-.025-.358.638-.7,1.482-.754s1.546.185,1.571.544-.639.7-1.482.754-1.546-.185-1.571-.544" transform="translate(-16.472 -18.662)" fill="#ffdede"/>
            </g>
          </g>
        </g>
      </g>
    </g>
  </g>
</svg>

