<svg id="Group_6850" data-name="Group 6850" xmlns="http://www.w3.org/2000/svg" xmlns:xlink="http://www.w3.org/1999/xlink" width="44.796" height="42.952" viewBox="0 0 44.796 42.952">
  <defs>
    <clipPath id="clip-path">
      <rect id="Rectangle_1897" data-name="Rectangle 1897" width="44.796" height="42.952" fill="none"/>
    </clipPath>
    <clipPath id="clip-path-2">
      <rect id="Rectangle_1896" data-name="Rectangle 1896" width="44.796" height="42.951" fill="none"/>
    </clipPath>
    <clipPath id="clip-path-3">
      <rect id="Rectangle_1881" data-name="Rectangle 1881" width="23.748" height="16.412" fill="none"/>
    </clipPath>
    <clipPath id="clip-path-4">
      <rect id="Rectangle_1882" data-name="Rectangle 1882" width="12.08" height="24.213" fill="none"/>
    </clipPath>
    <clipPath id="clip-path-5">
      <rect id="Rectangle_1883" data-name="Rectangle 1883" width="2.276" height="2.896" fill="none"/>
    </clipPath>
    <clipPath id="clip-path-6">
      <rect id="Rectangle_1884" data-name="Rectangle 1884" width="6.477" height="6.234" fill="none"/>
    </clipPath>
    <clipPath id="clip-path-7">
      <rect id="Rectangle_1885" data-name="Rectangle 1885" width="16.722" height="5.606" fill="none"/>
    </clipPath>
    <clipPath id="clip-path-8">
      <rect id="Rectangle_1886" data-name="Rectangle 1886" width="3.979" height="3.928" fill="none"/>
    </clipPath>
    <clipPath id="clip-path-9">
      <rect id="Rectangle_1887" data-name="Rectangle 1887" width="5.348" height="8.456" fill="none"/>
    </clipPath>
    <clipPath id="clip-path-10">
      <rect id="Rectangle_1888" data-name="Rectangle 1888" width="2.6" height="7.136" fill="none"/>
    </clipPath>
    <clipPath id="clip-path-11">
      <rect id="Rectangle_1889" data-name="Rectangle 1889" width="1.717" height="1.717" fill="none"/>
    </clipPath>
    <clipPath id="clip-path-13">
      <rect id="Rectangle_1891" data-name="Rectangle 1891" width="2.809" height="1.662" fill="none"/>
    </clipPath>
    <clipPath id="clip-path-15">
      <rect id="Rectangle_1893" data-name="Rectangle 1893" width="2.514" height="1.845" fill="none"/>
    </clipPath>
    <clipPath id="clip-path-16">
      <rect id="Rectangle_1894" data-name="Rectangle 1894" width="2.292" height="1.296" fill="none"/>
    </clipPath>
  </defs>
  <g id="Group_6849" data-name="Group 6849" clip-path="url(#clip-path)">
    <g id="Group_6848" data-name="Group 6848" transform="translate(0 0)">
      <g id="Group_6847" data-name="Group 6847" clip-path="url(#clip-path-2)">
        <path id="Path_7744" data-name="Path 7744" d="M15.927,39.049c-.889-.476-5,.688-1.42,4.636" transform="translate(-0.509 -1.518)" fill="none" stroke="#000" stroke-linecap="round" stroke-linejoin="round" stroke-width="0.776"/>
        <path id="Path_7745" data-name="Path 7745" d="M17.97,3.457l-1.555-.833-2.165-.056-2,1.334-.611,1.666-.056.723-1.166-.167L9.251,6.68,8.974,7.847l.444.445-1.5.111L5.42,9.681l-.555.889L4.254,12.4v1.723l.722,1.334.5.555-.666.445-.722.944.333.723.723.778.222.056-1.277.666-.111.834v.889l.167.555.777.555.722.056a.9.9,0,0,1,.253.951l-1.2,1.9-.166,1.5.209,1.459L5.2,29.408l1.417,1.167,1.374.417.875.333-.291,1.292.416,1.293.791.333,1.167.041.625-.542s1.082-.375,1.291.667v1.459l.708,1.042.791.5,1.417.25,1.207-.167.792-.375,1.291,1.209,1.708.583,1.749.084,1.541-.5s.667-.542.708-.708a6.132,6.132,0,0,1,.5-.833l.958.333s1.166,0,1.333-.042a6.954,6.954,0,0,0,.957-1l.042-.458s.333-1.083,1.166-1.042l.916.333s1.75.084,1.875.041,2-1.083,2-1.083l.625-1.167.125-1.542V30.2l-.084-.5s.041-.5.458-.417l.875.041.812-.812a6.756,6.756,0,0,0-.167-.772,2.877,2.877,0,0,0-.457-.5L38.619,26.2s.75-1.271.812-1.48.062-2.4.062-2.4a5.785,5.785,0,0,0-.333-1.23c-.125-.1-1.249-1.083-1.249-1.083l1.166-.792s-.021-1.375,0-1.563a5.7,5.7,0,0,0-.625-1.355,3.159,3.159,0,0,0-.646-.437l-.02-1s-.021-.562-.167-.708a4.6,4.6,0,0,0-.771-.437L37.7,11.8s-.271-2-.271-2.063-.833-1.521-.853-1.584S35.35,7.34,35.267,7.3s-1.062-.292-1.062-.292l-1.437.126-.5.187.457-1.5s-.625-.937-.707-1.146a4.7,4.7,0,0,0-1.229-.959A9.591,9.591,0,0,0,29.1,4.3c-.209.125-.687.437-.687.437a1.387,1.387,0,0,1-1.458-.271l-.1-1.542s-1.228-1.563-1.312-1.583-2.083-.6-2.083-.6L21.274.672s-1.645.9-1.728.979S18.316,3.13,18.316,3.13Z" transform="translate(-0.155 -0.026)" fill="#fff"/>
        <g id="Group_6803" data-name="Group 6803" transform="translate(3.655 0)" opacity="0.949">
          <g id="Group_6802" data-name="Group 6802">
            <g id="Group_6801" data-name="Group 6801" clip-path="url(#clip-path-3)">
              <path id="Path_7746" data-name="Path 7746" d="M5.622,16.412a.371.371,0,0,1-.241-.088,4.825,4.825,0,0,1-1.145-5.608A4.317,4.317,0,0,1,8.752,8.028a1.865,1.865,0,0,1,.6-1.814A2.01,2.01,0,0,1,11.2,5.906,4.1,4.1,0,0,1,13.833,2.2a4.734,4.734,0,0,1,4.325.628,5.161,5.161,0,0,1,5.013-2.8,4.81,4.81,0,0,1,4.378,4.249.373.373,0,1,1-.744.065A4.039,4.039,0,0,0,23.12.769H23.1a4.443,4.443,0,0,0-4.451,2.8.373.373,0,0,1-.612.137,3.906,3.906,0,0,0-3.948-.8A3.331,3.331,0,0,0,11.976,6.48a.373.373,0,0,1-.6.348,1.3,1.3,0,0,0-1.548-.039,1.124,1.124,0,0,0-.181,1.449.373.373,0,0,1-.352.59c-2.139-.291-3.611.445-4.372,2.187a4.075,4.075,0,0,0,.943,4.739.373.373,0,0,1-.241.658" transform="translate(-3.803 0)"/>
            </g>
          </g>
        </g>
        <g id="Group_6806" data-name="Group 6806" transform="translate(27.941 3.203)" opacity="0.949">
          <g id="Group_6805" data-name="Group 6805">
            <g id="Group_6804" data-name="Group 6804" clip-path="url(#clip-path-4)">
              <path id="Path_7747" data-name="Path 7747" d="M37.423,27.546A.424.424,0,0,1,37.1,26.8l.029-.02a.374.374,0,0,1,.328-.047,3.2,3.2,0,0,0,2.884-2.568,3.607,3.607,0,0,0-1.7-3.765.373.373,0,0,1,.156-.7,1.505,1.505,0,0,0,1.145-1.623,1.935,1.935,0,0,0-1.472-1.737.374.374,0,0,1-.154-.655,1.081,1.081,0,0,0,.246-.969.853.853,0,0,0-.88-.565.374.374,0,0,1-.308-.637,3.532,3.532,0,0,0,.527-4.36.316.316,0,0,1-.019-.03A3.5,3.5,0,0,0,33.54,7.612a.374.374,0,0,1-.491-.5,2.374,2.374,0,0,0,.093-1.8,1.792,1.792,0,0,0-.795-1,.361.361,0,0,1-.112-.037,1.934,1.934,0,0,0-2.462.707.373.373,0,1,1-.65-.367,2.683,2.683,0,0,1,3.353-1.052.347.347,0,0,1,.1.032,2.5,2.5,0,0,1,1.266,1.472,3.177,3.177,0,0,1,.12,1.621,4.268,4.268,0,0,1,4.558,2.062,4.227,4.227,0,0,1-.169,4.772,1.585,1.585,0,0,1,.921.981,1.819,1.819,0,0,1-.13,1.292,2.722,2.722,0,0,1,1.542,2.249,2.4,2.4,0,0,1-1.058,2.15,4.387,4.387,0,0,1,1.443,4.125,3.93,3.93,0,0,1-3.42,3.153.373.373,0,0,1-.23.08" transform="translate(-29.074 -3.334)"/>
            </g>
          </g>
        </g>
        <g id="Group_6809" data-name="Group 6809" transform="translate(35.294 26.685)" opacity="0.949">
          <g id="Group_6808" data-name="Group 6808">
            <g id="Group_6807" data-name="Group 6807" clip-path="url(#clip-path-5)">
              <path id="Path_7748" data-name="Path 7748" d="M37.507,30.663a1.35,1.35,0,0,1-.564-.121.373.373,0,0,1,.311-.678.7.7,0,1,0,.359-1.351.373.373,0,0,1,.067-.744,1.437,1.437,0,0,1,.479,2.745,1.529,1.529,0,0,1-.653.15" transform="translate(-36.725 -27.767)"/>
            </g>
          </g>
        </g>
        <g id="Group_6812" data-name="Group 6812" transform="translate(29.176 29.344)" opacity="0.949">
          <g id="Group_6811" data-name="Group 6811">
            <g id="Group_6810" data-name="Group 6810" clip-path="url(#clip-path-6)">
              <path id="Path_7749" data-name="Path 7749" d="M32.649,36.769a3.573,3.573,0,0,1-2.139-.684.373.373,0,1,1,.445-.6,3.169,3.169,0,0,0,3.964-.355,3.778,3.778,0,0,0,.911-4.082.373.373,0,0,1,.691-.283,4.488,4.488,0,0,1-1.1,4.914,4.123,4.123,0,0,1-2.775,1.089" transform="translate(-30.36 -30.535)"/>
            </g>
          </g>
        </g>
        <g id="Group_6815" data-name="Group 6815" transform="translate(12.178 33.798)" opacity="0.949">
          <g id="Group_6814" data-name="Group 6814">
            <g id="Group_6813" data-name="Group 6813" clip-path="url(#clip-path-7)">
              <path id="Path_7750" data-name="Path 7750" d="M22.089,40.775c-.124,0-.248-.006-.373-.017a4.493,4.493,0,0,1-3.565-2.023,3.625,3.625,0,0,1-3.647.29,3.224,3.224,0,0,1-1.745-3.576.373.373,0,0,1,.723.186,2.467,2.467,0,0,0,1.356,2.722A2.891,2.891,0,0,0,18,37.9a.373.373,0,0,1,.583.1,3.76,3.76,0,0,0,3.158,2.012h.036a3.534,3.534,0,0,0,3.544-2.1.373.373,0,0,1,.647-.075,1.436,1.436,0,0,0,1.613.418,1.664,1.664,0,0,0,1.073-1.428.373.373,0,0,1,.745.046,2.43,2.43,0,0,1-1.567,2.085,2.252,2.252,0,0,1-2.062-.279,4.336,4.336,0,0,1-3.675,2.089" transform="translate(-12.672 -35.168)"/>
            </g>
          </g>
        </g>
        <g id="Group_6818" data-name="Group 6818" transform="translate(8.092 30.738)" opacity="0.949">
          <g id="Group_6817" data-name="Group 6817">
            <g id="Group_6816" data-name="Group 6816" clip-path="url(#clip-path-8)">
              <path id="Path_7751" data-name="Path 7751" d="M10.639,35.913a2.256,2.256,0,0,1-1.591-3.818.373.373,0,1,1,.529.527,1.509,1.509,0,0,0,2.175,2.092.373.373,0,0,1,.548.507,2.262,2.262,0,0,1-1.591.691h-.07" transform="translate(-8.42 -31.985)"/>
            </g>
          </g>
        </g>
        <g id="Group_6821" data-name="Group 6821" transform="translate(3.841 23.065)" opacity="0.949">
          <g id="Group_6820" data-name="Group 6820">
            <g id="Group_6819" data-name="Group 6819" clip-path="url(#clip-path-9)">
              <path id="Path_7752" data-name="Path 7752" d="M8.894,32.457A5,5,0,0,1,4.365,29.4a4.538,4.538,0,0,1,1.326-5.316.373.373,0,1,1,.457.59,3.822,3.822,0,0,0-1.1,4.428l.008.017a4.233,4.233,0,0,0,3.907,2.6.373.373,0,1,1,.014.746H8.894" transform="translate(-3.997 -24)"/>
            </g>
          </g>
        </g>
        <g id="Group_6824" data-name="Group 6824" transform="translate(3.313 15.681)" opacity="0.949">
          <g id="Group_6823" data-name="Group 6823">
            <g id="Group_6822" data-name="Group 6822" clip-path="url(#clip-path-10)">
              <path id="Path_7753" data-name="Path 7753" d="M5.508,23.454a2.066,2.066,0,0,1-1.3-.481,2.036,2.036,0,0,1-.756-1.386A2.255,2.255,0,0,1,4.57,19.568a1.834,1.834,0,0,1,.99-3.249.373.373,0,1,1,.073.743,1.1,1.1,0,0,0-.1,2.177.373.373,0,0,1,0,.731A1.625,1.625,0,0,0,4.2,21.526,1.356,1.356,0,0,0,5.63,22.7a.373.373,0,1,1,.086.741,1.675,1.675,0,0,1-.209.012" transform="translate(-3.447 -16.317)"/>
            </g>
          </g>
        </g>
        <path id="Path_7754" data-name="Path 7754" d="M1.548,19.5a.373.373,0,0,0-.363.289A4.833,4.833,0,0,0,4.317,25.3a.373.373,0,1,0,.228-.71,4.117,4.117,0,0,1-2.632-4.63.373.373,0,0,0-.281-.447.355.355,0,0,0-.084-.01" transform="translate(-0.042 -0.76)"/>
        <path id="Path_7755" data-name="Path 7755" d="M44.3,18.113a.283.283,0,0,0-.069.008.373.373,0,0,0-.3.434,3.7,3.7,0,0,1-2.695,4.13.373.373,0,1,0,.17.727,4.473,4.473,0,0,0,3.258-4.993.373.373,0,0,0-.366-.306" transform="translate(-1.596 -0.706)"/>
        <g id="Group_6827" data-name="Group 6827" transform="translate(14.47 17.884)" opacity="0.949">
          <g id="Group_6826" data-name="Group 6826">
            <g id="Group_6825" data-name="Group 6825" clip-path="url(#clip-path-11)">
              <path id="Path_7756" data-name="Path 7756" d="M15.057,19.468a.859.859,0,1,1,.858.858.858.858,0,0,1-.858-.858" transform="translate(-15.057 -18.61)"/>
            </g>
          </g>
        </g>
        <g id="Group_6830" data-name="Group 6830" transform="translate(20.364 17.884)" opacity="0.949">
          <g id="Group_6829" data-name="Group 6829">
            <g id="Group_6828" data-name="Group 6828" clip-path="url(#clip-path-11)">
              <path id="Path_7757" data-name="Path 7757" d="M21.19,19.468a.859.859,0,1,1,.858.858.858.858,0,0,1-.858-.858" transform="translate(-21.19 -18.61)"/>
            </g>
          </g>
        </g>
        <g id="Group_6834" data-name="Group 6834" transform="translate(15.749 19.54)" opacity="0.949">
          <g id="Group_6833" data-name="Group 6833">
            <g id="Group_6832" data-name="Group 6832" clip-path="url(#clip-path-13)">
              <path id="Path_7758" data-name="Path 7758" d="M17.422,22a1.705,1.705,0,0,1-.847-.219.373.373,0,0,1,.185-.7h.012a.374.374,0,0,1,.23.078,1.1,1.1,0,0,0,.836.015,1.031,1.031,0,0,0,.633-.593.373.373,0,0,1,.7.253,1.771,1.771,0,0,1-1.078,1.04,1.943,1.943,0,0,1-.675.123" transform="translate(-16.388 -20.333)"/>
            </g>
          </g>
        </g>
        <g id="Group_6837" data-name="Group 6837" transform="translate(17.812 19.541)" opacity="0.949">
          <g id="Group_6836" data-name="Group 6836">
            <g id="Group_6835" data-name="Group 6835" clip-path="url(#clip-path-13)">
              <path id="Path_7759" data-name="Path 7759" d="M20.309,22a1.948,1.948,0,0,1-.676-.123,1.766,1.766,0,0,1-1.076-1.039.373.373,0,1,1,.7-.254,1.026,1.026,0,0,0,.633.593,1.1,1.1,0,0,0,.835-.014.37.37,0,0,1,.231-.079h.012a.373.373,0,0,1,.185.7,1.7,1.7,0,0,1-.846.219" transform="translate(-18.534 -20.333)"/>
            </g>
          </g>
        </g>
        <g id="Group_6840" data-name="Group 6840" transform="translate(16.9 20.407)" opacity="0.949">
          <g id="Group_6839" data-name="Group 6839">
            <g id="Group_6838" data-name="Group 6838" clip-path="url(#clip-path-15)">
              <path id="Path_7760" data-name="Path 7760" d="M18.834,23.079h-.009a1.3,1.3,0,0,1-1.207-1.564.373.373,0,1,1,.723.184.555.555,0,0,0,.49.634.533.533,0,0,0,.382-.2.543.543,0,0,0,.131-.438.373.373,0,1,1,.73-.15,1.289,1.289,0,0,1-.284,1.062,1.249,1.249,0,0,1-.956.475" transform="translate(-17.585 -21.234)"/>
            </g>
          </g>
        </g>
        <g id="Group_6843" data-name="Group 6843" transform="translate(22.254 19.163)" opacity="0.949">
          <g id="Group_6842" data-name="Group 6842">
            <g id="Group_6841" data-name="Group 6841" clip-path="url(#clip-path-16)">
              <path id="Path_7761" data-name="Path 7761" d="M23.156,20.589c0-.358.513-.649,1.146-.649s1.147.29,1.147.649-.513.648-1.147.648-1.146-.289-1.146-.648" transform="translate(-23.156 -19.941)" fill="#ffdede"/>
            </g>
          </g>
        </g>
        <g id="Group_6846" data-name="Group 6846" transform="translate(12.178 19.265)" opacity="0.949">
          <g id="Group_6845" data-name="Group 6845">
            <g id="Group_6844" data-name="Group 6844" clip-path="url(#clip-path-16)">
              <path id="Path_7762" data-name="Path 7762" d="M12.672,20.695c0-.358.513-.649,1.146-.649s1.147.29,1.147.649-.513.649-1.147.649-1.146-.29-1.146-.649" transform="translate(-12.672 -20.047)" fill="#ffdede"/>
            </g>
          </g>
        </g>
        <line id="Line_273" data-name="Line 273" x2="3.929" y2="5.063" transform="translate(27.741 36.927)" fill="none" stroke="#000" stroke-linecap="round" stroke-linejoin="round" stroke-width="0.776"/>
        <path id="Path_7763" data-name="Path 7763" d="M14.3,43.869c-1.31-.333-2.726-.2-3.292.412" transform="translate(-0.429 -1.703)" fill="none" stroke="#000" stroke-linecap="round" stroke-linejoin="round" stroke-width="0.776"/>
        <path id="Path_7764" data-name="Path 7764" d="M36.341,43.709a5.452,5.452,0,0,0-3.316.13" transform="translate(-1.287 -1.696)" fill="none" stroke="#000" stroke-linecap="round" stroke-linejoin="round" stroke-width="0.776"/>
        <line id="Line_274" data-name="Line 274" x2="1.247" y2="2.571" transform="translate(41.483 15.314)" fill="none" stroke="#000" stroke-linecap="round" stroke-linejoin="round" stroke-width="0.776"/>
        <line id="Line_275" data-name="Line 275" x1="1.658" y2="2.328" transform="translate(42.765 15.576)" fill="none" stroke="#000" stroke-linecap="round" stroke-linejoin="round" stroke-width="0.776"/>
        <line id="Line_276" data-name="Line 276" x2="1.247" y2="2.571" transform="translate(0.373 16.113)" fill="none" stroke="#000" stroke-linecap="round" stroke-linejoin="round" stroke-width="0.776"/>
        <line id="Line_277" data-name="Line 277" x1="1.658" y2="2.328" transform="translate(1.655 16.374)" fill="none" stroke="#000" stroke-linecap="round" stroke-linejoin="round" stroke-width="0.776"/>
      </g>
    </g>
  </g>
</svg>
