<svg data-name="구성 요소 8 – 9" xmlns="http://www.w3.org/2000/svg">
    <g data-name="그룹 7011">
        <g data-name="그룹 7012">
            <g data-name="그룹 7013">
                <g data-name="그룹 7009">
                    <g data-name="그룹 7007" style="clip-path:url(#niitn8ro1a)">
                        <path data-name="패스 7967" d="M33.092 22.089H11.9a.429.429 0 0 1-.42-.34L7.663 3.907 1.3 1.837a.43.43 0 0 1 .265-.817l6.6 2.147a.43.43 0 0 1 .287.319l3.792 17.744h20.848a.429.429 0 1 1 0 .859" transform="translate(-.57 -.57)" style="fill:#9579c9"/>
                        <path data-name="패스 7968" d="M32.522 21.949h-21.2a.863.863 0 0 1-.84-.679L6.725 3.67.593 1.676A.859.859 0 0 1 1.124.042l6.6 2.147a.862.862 0 0 1 .574.637l3.722 17.406h20.5a.859.859 0 0 1 0 1.717M.859.859l6.6 2.147 3.867 18.084L7.461 3.006z" style="fill:#9579c9"/>
                        <path data-name="패스 7969" d="M46.731 20.41a.429.429 0 0 1-.42-.519L49.1 6.858H23.632a.43.43 0 0 1 0-.859h25.994a.43.43 0 0 1 .42.519l-2.9 13.552a.429.429 0 0 1-.419.34" transform="translate(-13.24 -3.423)" style="fill:#9579c9"/>
                        <path data-name="패스 7970" d="M46.161 20.268a.876.876 0 0 1-.181-.019.859.859 0 0 1-.659-1.02l2.673-12.512H23.062a.859.859 0 0 1 0-1.718h25.994a.859.859 0 0 1 .844 1.039L47 19.589a.862.862 0 0 1-.839.679" transform="translate(-12.67 -2.853)" style="fill:#9579c9"/>
                        <path data-name="패스 7971" d="M31.422 55.079a2.948 2.948 0 1 1 2.948-2.948 2.951 2.951 0 0 1-2.948 2.948m0-5.037a2.089 2.089 0 1 0 2.089 2.089 2.092 2.092 0 0 0-2.089-2.089" transform="translate(-16.248 -28.066)" style="fill:#9579c9"/>
                        <path data-name="패스 7972" d="M30.851 54.937a3.377 3.377 0 1 1 3.377-3.377 3.381 3.381 0 0 1-3.377 3.377m-2.518-3.377a2.519 2.519 0 0 0 5.037 0 2.519 2.519 0 0 1-5.037 0m2.519-1.66a1.66 1.66 0 1 0 1.66 1.66 1.662 1.662 0 0 0-1.66-1.66" transform="translate(-15.678 -27.495)" style="fill:#9579c9"/>
                        <path data-name="패스 7973" d="M62.919 55.079a2.948 2.948 0 1 1 2.948-2.948 2.951 2.951 0 0 1-2.948 2.948m0-5.037a2.089 2.089 0 1 0 2.089 2.089 2.091 2.091 0 0 0-2.089-2.089" transform="translate(-34.222 -28.066)" style="fill:#9579c9"/>
                        <path data-name="패스 7974" d="M62.348 54.937a3.377 3.377 0 1 1 3.377-3.377 3.381 3.381 0 0 1-3.377 3.377M59.83 51.56a2.518 2.518 0 0 0 5.037 0 2.518 2.518 0 0 1-5.037 0m2.519-1.66a1.66 1.66 0 1 0 1.659 1.66 1.662 1.662 0 0 0-1.659-1.66" transform="translate(-33.651 -27.495)" style="fill:#9579c9"/>
                        <path data-name="패스 7975" d="M46.6 38.8H23.631a.429.429 0 1 1 0-.859H46.6a.429.429 0 0 1 0 .859" transform="translate(-13.24 -21.649)" style="fill:#9579c9"/>
                        <path data-name="패스 7976" d="M46.033 38.656H23.062a.859.859 0 0 1 0-1.717h22.971a.859.859 0 1 1 0 1.717m0-.859z" transform="translate(-12.67 -21.079)" style="fill:#9579c9"/>
                        <path data-name="패스 7977" d="M48.467 13.852a2.512 2.512 0 0 0-3.552 0l-.523.522-.522-.522a2.512 2.512 0 0 0-3.578 3.527l.025.025.523.523 3.553 3.553 3.553-3.553.523-.523a2.511 2.511 0 0 0 0-3.551" transform="translate(-22.579 -7.478)" style="fill:#9579c9"/>
                        <path data-name="패스 7978" d="m43.614 21.531-4.519-4.519a3.1 3.1 0 0 1 4.415-4.349l.1.1.108-.107a3.079 3.079 0 0 1 2.191-.908 3.077 3.077 0 0 1 2.118.839l.019.01.076.084a3.1 3.1 0 0 1-.023 4.357zM41.3 12.913a1.924 1.924 0 0 0-1.37 3.276l3.682 3.683 3.661-3.66a1.924 1.924 0 0 0 .018-2.705l-.018-.018a1.915 1.915 0 0 0-1.361-.564 1.911 1.911 0 0 0-1.361.564l-.938.938-.936-.937a1.927 1.927 0 0 0-1.376-.575" transform="translate(-21.802 -6.7)" style="fill:#9579c9"/>
                    </g>
                </g>
            </g>
        </g>
    </g>
</svg>
