<svg xmlns="http://www.w3.org/2000/svg" width="25.402" height="23.175" viewBox="0 0 25.402 23.175">
  <g id="Group_6445" data-name="Group 6445" transform="translate(2659.961 5732.832)">
    <g id="Group_6438" data-name="Group 6438" transform="translate(-2659.211 -5732.082)">
      <g id="Group_6436" data-name="Group 6436">
        <g id="Group_6435" data-name="Group 6435">
          <path id="Path_7263" data-name="Path 7263" d="M4179.183,1015.35v7.693a3.022,3.022,0,0,0,6.044,0v-7.693Z" transform="translate(-4179.183 -1015.35)" fill="none"  stroke-linecap="round" stroke-linejoin="round" stroke-width="1.5"/>
          <path id="Path_7264" data-name="Path 7264" d="M4198.244,1015.35v7.693a3.022,3.022,0,1,0,6.044,0v-7.693Z" transform="translate(-4192.292 -1015.35)" fill="none"  stroke-linecap="round" stroke-linejoin="round" stroke-width="1.5"/>
          <path id="Path_7265" data-name="Path 7265" d="M4217.3,1015.35v7.693a3.022,3.022,0,0,0,6.045,0v-7.693Z" transform="translate(-4205.399 -1015.35)" fill="none"  stroke-linecap="round" stroke-linejoin="round" stroke-width="1.5"/>
          <path id="Path_7266" data-name="Path 7266" d="M4236.365,1015.35v7.693a3.022,3.022,0,0,0,6.044,0v-7.693Z" transform="translate(-4218.508 -1015.35)" fill="none"  stroke-linecap="round" stroke-linejoin="round" stroke-width="1.5"/>
        </g>
        <path id="Path_7267" data-name="Path 7267" d="M4204.615,1049.367v11.052h-21.354v-11.052" transform="translate(-4181.987 -1038.744)" fill="none"  stroke-linecap="round" stroke-linejoin="round" stroke-width="1.5"/>
      </g>
      <g id="Group_6437" data-name="Group 6437" transform="translate(5.761 14.065)">
        <path id="Path_7268" data-name="Path 7268" d="M4197.631,1068v-4.963a2.647,2.647,0,0,1,2.647-2.647h0a2.647,2.647,0,0,1,2.647,2.647V1068" transform="translate(-4197.631 -1060.387)" fill="none"  stroke-linecap="round" stroke-linejoin="round" stroke-width="1.5"/>
        <line id="Line_246" data-name="Line 246" x2="3.435" transform="translate(8.944 2.112)" fill="none"  stroke-linecap="round" stroke-linejoin="round" stroke-width="1.5"/>
      </g>
    </g>
  </g>
</svg>
