<svg xmlns="http://www.w3.org/2000/svg" width="28.499" height="27.789" viewBox="0 0 28.499 27.789">
  <g id="Group_6974" data-name="Group 6974" transform="translate(-328.501 -15.501)">
    <path id="Path_7811" data-name="Path 7811" d="M7.41,25.077A1.9,1.9,0,0,1,5.389,23.32v-1.1A1.9,1.9,0,0,1,7.41,20.46H26.368a1.9,1.9,0,0,1,2.021,1.762v1.1a1.9,1.9,0,0,1-2.021,1.757Z" transform="translate(325.861 6.624)" stroke="none"/>
    <path id="Path_7812" data-name="Path 7812" d="M25.082,25.721a1.868,1.868,0,0,1-1.759,1.958h-1.1a1.868,1.868,0,0,1-1.76-1.958V7.348a1.865,1.865,0,0,1,1.76-1.959h1.1a1.864,1.864,0,0,1,1.759,1.959Z" transform="translate(319.977 12.862)"  stroke="none"/>
    <rect id="Rectangle_1913" data-name="Rectangle 1913" width="28.499" height="27.789" transform="translate(328.501 15.501)" fill="none" stroke="none"/>
  </g>
</svg>
