<svg xmlns="http://www.w3.org/2000/svg" width="25.401" height="24.524" viewBox="0 0 25.401 24.524">
  <g id="Group_6446" data-name="Group 6446" transform="translate(2658.974 5680.023)">
    <g id="Group_6434" data-name="Group 6434" transform="translate(-2658.224 -5679.273)">
      <g id="Group_6432" data-name="Group 6432">
        <rect id="Rectangle_1783" data-name="Rectangle 1783" width="15.569" height="14.692" fill="none" stroke-linecap="round" stroke-linejoin="round" stroke-width="1.5"/>
        <path id="Path_7260" data-name="Path 7260" d="M4182.343,1209.9v5.263h23.9v-4.824l-3.289-8.333h-4.167" transform="translate(-4182.343 -1196.52)" fill="none" stroke-linecap="round" stroke-linejoin="round" stroke-width="1.5"/>
        <line id="Line_244" data-name="Line 244" x2="6.359" transform="translate(4.605 5.044)" fill="none" stroke-linecap="round" stroke-linejoin="round" stroke-width="1.5"/>
        <line id="Line_245" data-name="Line 245" x1="6.359" transform="translate(4.605 9.648)" fill="none" stroke-linecap="round" stroke-linejoin="round" stroke-width="1.5"/>
      </g>
      <g id="Group_6433" data-name="Group 6433" transform="translate(3.837 18.639)">
        <path id="Path_7261" data-name="Path 7261" d="M4199.017,1246.324a2.193,2.193,0,1,0-2.193,2.193A2.193,2.193,0,0,0,4199.017,1246.324Z" transform="translate(-4194.631 -1244.131)" fill="none" stroke-linecap="round" stroke-linejoin="round" stroke-width="1.5"/>
        <path id="Path_7262" data-name="Path 7262" d="M4236.933,1246.324a2.193,2.193,0,1,0-2.192,2.193A2.193,2.193,0,0,0,4236.933,1246.324Z" transform="translate(-4220.707 -1244.131)" fill="none" stroke-linecap="round" stroke-linejoin="round" stroke-width="1.5"/>
      </g>
    </g>
  </g>
</svg>
