<svg xmlns="http://www.w3.org/2000/svg" width="26.407" height="15.197" viewBox="0 0 26.407 15.197">
  <g id="Group_6663" data-name="Group 6663" transform="translate(0 0)">
    <path id="Path_6716" data-name="Path 6716" d="M422.273,507.07a.962.962,0,0,0-.944-.027L415.72,510a7.593,7.593,0,0,0-6.184-3.182h-.008a7.641,7.641,0,0,0-6.325,3.4l-5.432-3.156a.96.96,0,0,0-1.442.83v13.044a.96.96,0,0,0,1.408.849l5.608-2.956a7.6,7.6,0,0,0,12.517-.22l5.432,3.156a.96.96,0,0,0,1.442-.83V507.892A.961.961,0,0,0,422.273,507.07Zm-6.137,9.478a.961.961,0,0,0-1.484.319,5.679,5.679,0,0,1-10.121.242.96.96,0,0,0-1.08-.474.97.97,0,0,0-.242.1l-4.958,2.613v-3.97h2.561a.96.96,0,0,0,0-1.921H398.25v-3.893l4.679,2.719a.961.961,0,0,0,1.486-.318,5.634,5.634,0,0,1,5.1-3.226h.045a5.677,5.677,0,0,1,4.98,2.984.958.958,0,0,0,1.08.475.942.942,0,0,0,.254-.1l4.946-2.607v3.97h-2.561a.96.96,0,0,0,0,1.921h2.561v3.893Z" transform="translate(-396.329 -506.816)" fill="#9579c9"/>
  </g>
</svg>
