<svg xmlns="http://www.w3.org/2000/svg" width="25.401" height="24.865" viewBox="0 0 25.401 24.865">
  <g id="Group_6447" data-name="Group 6447" transform="translate(2591.178 5736.75)">
    <g id="Group_6431" data-name="Group 6431" transform="translate(-2590.428 -5736)">
      <g id="Group_6430" data-name="Group 6430" transform="translate(1.939)">
        <path id="Path_7257" data-name="Path 7257" d="M4405.644,1062.9v-5.16a1.2,1.2,0,0,1,1.195-1.2h2.108a1.2,1.2,0,0,1,1.2,1.2v5.16" transform="translate(-4405.644 -1039.763)" fill="none"  stroke-linecap="round" stroke-linejoin="round" stroke-width="1.5"/>
        <path id="Path_7258" data-name="Path 7258" d="M4430.5,1025.942V1004a1.2,1.2,0,0,1,1.194-1.195h2.109A1.2,1.2,0,0,1,4435,1004v21.945" transform="translate(-4422.738 -1002.802)" fill="none"  stroke-linecap="round" stroke-linejoin="round" stroke-width="1.5"/>
        <path id="Path_7259" data-name="Path 7259" d="M4455.357,1044.968v-13.3a1.2,1.2,0,0,1,1.195-1.195h2.108a1.2,1.2,0,0,1,1.2,1.195v13.3" transform="translate(-4439.832 -1021.828)" fill="none"  stroke-linecap="round" stroke-linejoin="round" stroke-width="1.5"/>
      </g>
      <line id="Line_243" data-name="Line 243" x2="23.901" transform="translate(0 23.365)" fill="none"  stroke-linecap="round" stroke-linejoin="round" stroke-width="1.5"/>
    </g>
  </g>
</svg>
